HIERARCHY
ROOT Hips
{
	OFFSET 0.00000 0.00000 0.00000
	CHANNELS 6 Xposition Yposition Zposition Zrotation Yrotation Xrotation 
	JOINT RightUpLegDummy
	{
		OFFSET 0 0 0
		CHANNELS 3 Zrotation Yrotation Xrotation
		JOINT RightUpLeg
		{
			OFFSET -3.52197 -3.41223 0.04002
			CHANNELS 3 Zrotation Yrotation Xrotation
			JOINT RightLeg
			{
				OFFSET 0.00006 -17.42390 1.60435
				CHANNELS 3 Zrotation Yrotation Xrotation
				JOINT RightFoot
				{
					OFFSET 0.06153 -16.50078 -1.63901
					CHANNELS 3 Zrotation Yrotation Xrotation
					JOINT RightToes
					{
						OFFSET 0.00298 -1.73825 3.34613
						CHANNELS 3 Zrotation Yrotation Xrotation
						End Site
						{
							OFFSET 0.00480 -0.05416 3.85043
						}
					}
				}
			}
		}
	}
	JOINT SpineDummy
	{
		OFFSET 0 0 0
		CHANNELS 3 Zrotation Yrotation Xrotation
		JOINT Spine
		{
			OFFSET 0.00000 4.68130 0.00000
			CHANNELS 3 Zrotation Yrotation Xrotation
			JOINT Spine1
			{
				OFFSET -0.00000 10.10138 0.05002
				CHANNELS 3 Zrotation Yrotation Xrotation
				JOINT HEadDummy
				{
					OFFSET 0 0 0
					CHANNELS 3 Zrotation Yrotation Xrotation
					JOINT Head
					{
						OFFSET -0.00000 3.43865 0.00438
						CHANNELS 3 Zrotation Yrotation Xrotation
						End Site
						{
							OFFSET -0.11417 5.02924 0.98962
						}
					}
				}
				JOINT LeftShoulder1Dummy
				{
					OFFSET 0 0 0
					CHANNELS 3 Zrotation Yrotation Xrotation
					JOINT LeftShoulder1
					{
						OFFSET 3.53937 -0.14262 -0.08662
						CHANNELS 3 Zrotation Yrotation Xrotation
						JOINT LeftArm
						{
							OFFSET 4.04833 -0.00133 0.12681
							CHANNELS 3 Zrotation Yrotation Xrotation
							JOINT LeftForeArm
							{
								OFFSET 10.33880 -0.01036 -0.55515
								CHANNELS 3 Zrotation Yrotation Xrotation
								JOINT LeftHand
								{
									OFFSET 8.69677 0.07543 0.40060
									CHANNELS 3 Zrotation Yrotation Xrotation
									End Site
									{
										OFFSET 5.28377 -0.21905 0.59205
									}
								}
							}
						}
					}
				}
				JOINT RightShoulderDummy
				{
					OFFSET 0 0 0
					CHANNELS 3 Zrotation Yrotation Xrotation
					JOINT RightShoulder
					{
						OFFSET -3.53937 -0.14262 -0.08660
						CHANNELS 3 Zrotation Yrotation Xrotation
						JOINT RightArm
						{
							OFFSET -4.04833 -0.00133 0.12683
							CHANNELS 3 Zrotation Yrotation Xrotation
							JOINT RightForeArm
							{
								OFFSET -10.37987 -0.01039 -0.55511
								CHANNELS 3 Zrotation Yrotation Xrotation
								JOINT RightHand
								{
									OFFSET -8.67398 0.07538 0.40058
									CHANNELS 3 Zrotation Yrotation Xrotation
									End Site
									{
										OFFSET -5.24810 -0.21916 0.59204
									}
								}
							}
						}
					}
				}
			}
		}
	}
	JOINT LeftUpLegDummy
	{
		OFFSET 0 0 0
		CHANNELS 3 Zrotation Yrotation Xrotation
		JOINT LeftUpLeg
		{
			OFFSET 3.52197 -3.41223 0.04002
			CHANNELS 3 Zrotation Yrotation Xrotation
			JOINT LeftLeg
			{
				OFFSET -0.00012 -17.42399 1.60337
				CHANNELS 3 Zrotation Yrotation Xrotation
				JOINT LeftFoot
				{
					OFFSET -0.09972 -16.50070 -1.63802
					CHANNELS 3 Zrotation Yrotation Xrotation
					JOINT LeftToes
					{
						OFFSET -0.01575 -1.73823 3.34611
						CHANNELS 3 Zrotation Yrotation Xrotation
						End Site
						{
							OFFSET 0.03150 -0.01868 3.85031
						}
					}
				}
			}
		}
	}
}
MOTION
Frames: 11
Frame Time: 0.033333
16.1666 39.4632 77.9652 179.1360 -27.3652 176.3100 0.0000 0.0000 0.0000 -4.7856 -1.0614 3.1848 0.8718 7.9685 11.9173 1.1395 -0.0429 -11.1396 0.0000 -0.0000 -0.0000 0.0000 0.0000 0.0000 0.0370 -1.3864 4.9377 1.3478 -1.7101 1.2672 -0.0000 0.0000 -0.0000 2.7382 -2.3870 -6.2026 -0.0000 0.0000 -0.0000 -34.4125 -2.8805 2.5821 -44.6934 -18.7056 -16.3829 -10.5075 5.0732 49.9393 17.4717 -3.2740 -1.2825 -0.0000 0.0000 -0.0000 34.1211 5.0629 3.4380 37.9057 8.1053 -16.3444 11.0574 0.0904 20.1846 -11.6418 1.3011 -0.6599 0.0000 0.0000 0.0000 6.8400 2.4107 -7.0271 0.6189 -3.2580 9.9315 7.6449 -0.4603 -4.0121 0.0000 0.0000 -0.0000
15.3773 39.3093 78.0547 178.8130 -26.8083 175.9680 0.0000 0.0000 0.0000 -6.0802 2.3748 2.8701 0.8142 5.0122 14.2717 1.9496 -0.0330 -12.0058 0.0000 -0.0000 -0.0000 0.0000 0.0000 0.0000 -0.6023 -1.4349 5.4192 1.9565 -1.8707 1.1152 -0.0000 0.0000 -0.0000 2.8686 -2.4171 -5.6726 -0.0000 0.0000 -0.0000 -34.1827 -2.8907 2.5714 -45.0602 -19.1158 -16.3264 -10.3637 5.0481 50.8243 17.0901 -3.1886 -1.2415 -0.0000 0.0000 -0.0000 34.0190 5.0346 3.4178 38.1338 7.7285 -16.4477 10.9744 0.5593 20.2729 -11.9915 1.3949 -0.6892 0.0000 0.0000 0.0000 6.0122 2.5052 -6.8594 -0.0892 -4.2188 11.4768 4.0054 -0.2826 -2.8255 0.0000 0.0000 -0.0000
14.5855 39.1531 78.1649 178.1420 -26.4909 175.5370 0.0000 0.0000 0.0000 -7.7919 5.3038 2.3624 0.7277 2.0608 17.5269 3.0464 -0.0167 -12.4356 0.0000 -0.0000 -0.0000 0.0000 0.0000 0.0000 -1.6522 -1.4703 6.2285 2.6153 -2.0359 0.9252 -0.0000 0.0000 -0.0000 2.8359 -2.5614 -5.6018 -0.0000 0.0000 -0.0000 -34.0688 -2.8751 2.5577 -45.2093 -19.4232 -16.1875 -10.3856 5.0463 50.8758 16.2216 -3.3842 -1.2019 -0.0000 0.0000 -0.0000 34.1261 5.0402 3.4294 38.1769 7.2947 -16.8085 10.8176 0.8177 20.3239 -11.5314 1.4794 -0.6699 0.0000 0.0000 0.0000 5.0841 3.2880 -6.4520 -1.2006 -4.8797 13.1193 -0.6414 0.0616 -2.9106 0.0000 0.0000 -0.0000
13.7699 39.0431 78.3048 177.4540 -26.5542 174.9920 0.0000 0.0000 0.0000 -9.5848 5.7200 1.7051 0.4688 1.3162 21.3017 5.1214 -0.0238 -11.8386 0.0000 -0.0000 -0.0000 0.0000 0.0000 0.0000 -2.4013 -1.6279 6.9730 2.9184 -2.2745 1.0067 -0.0000 0.0000 -0.0000 3.1279 -2.8071 -5.5315 -0.0000 0.0000 -0.0000 -34.2758 -2.8558 2.5634 -44.9499 -19.7700 -15.9377 -10.5714 5.0543 50.5399 15.2291 -3.7955 -1.1772 -0.0000 0.0000 -0.0000 34.3942 5.0840 3.4702 38.1045 7.1103 -17.3493 10.6238 0.5728 20.4123 -11.2848 1.5798 -0.6643 0.0000 0.0000 0.0000 3.7959 3.8576 -5.9455 -2.1450 -5.1161 14.8005 -2.5497 0.1911 -3.8984 0.0000 0.0000 -0.0000
12.9535 38.9557 78.4714 177.2290 -26.8412 174.3650 0.0000 0.0000 0.0000 -10.9682 6.0424 0.4187 0.1444 0.5827 25.7616 8.0075 -0.1468 -9.8368 0.0000 -0.0000 -0.0000 0.0000 0.0000 0.0000 -2.3076 -1.8320 7.4541 2.8168 -2.4783 1.2464 -0.0000 0.0000 -0.0000 3.1763 -3.3069 -5.3813 -0.0000 0.0000 -0.0000 -34.5018 -2.8601 2.5797 -44.7467 -20.2428 -15.6432 -10.7045 5.0500 50.6261 14.8319 -4.0402 -1.1749 -0.0000 0.0000 -0.0000 34.4635 5.1030 3.4839 38.3405 7.0545 -18.0156 10.3629 0.0033 20.7311 -11.5441 1.5956 -0.6813 0.0000 0.0000 0.0000 2.5646 3.8288 -5.6998 -2.8071 -5.1000 16.6273 -1.6636 0.1221 -5.1503 0.0000 0.0000 -0.0000
12.2003 38.8505 78.6494 177.5010 -26.9618 173.7290 0.0000 0.0000 0.0000 -11.5803 6.7005 -1.8944 -0.9012 -0.8848 31.2440 9.9424 -0.4668 -6.2140 0.0000 -0.0000 -0.0000 0.0000 0.0000 0.0000 -1.7983 -1.8350 7.9825 2.8252 -2.4790 1.1241 -0.0000 0.0000 -0.0000 3.0168 -3.8762 -4.9732 -0.0000 0.0000 -0.0000 -34.3707 -2.8693 2.5749 -45.0608 -20.5558 -15.2044 -10.8142 5.0439 50.7816 15.0555 -3.9910 -1.1872 -0.0000 0.0000 -0.0000 34.2318 5.0682 3.4497 38.9294 6.7668 -18.5246 10.1430 -0.4052 21.0525 -11.6565 1.4524 -0.6749 0.0000 0.0000 0.0000 1.8907 3.8085 -5.7584 -3.5381 -5.0976 18.5506 -0.5565 0.0617 -6.4654 0.0000 0.0000 -0.0000
11.5474 38.7312 78.8209 177.8360 -26.9541 173.1300 0.0000 0.0000 0.0000 -11.6317 7.5048 -4.8752 -3.2610 -3.2255 37.4040 9.2659 -0.7858 -1.6270 0.0000 -0.0000 -0.0000 0.0000 0.0000 0.0000 -1.8045 -1.6567 8.9009 3.4430 -2.4136 0.4628 -0.0000 0.0000 -0.0000 2.8677 -4.1960 -4.4999 -0.0000 0.0000 -0.0000 -34.0373 -2.8487 2.5452 -45.5469 -20.3284 -14.4422 -11.1987 5.0648 49.9279 15.2004 -3.9230 -1.1907 -0.0000 0.0000 -0.0000 34.1106 5.0483 3.4312 39.3603 6.2549 -18.6145 10.1109 -0.5280 21.2144 -11.4068 1.4100 -0.6561 0.0000 0.0000 0.0000 1.6470 4.1926 -5.8318 -4.6117 -5.3577 20.3480 -0.5714 0.0638 -7.8473 0.0000 0.0000 -0.0000
10.9650 38.6382 78.9668 177.9580 -27.3578 172.5470 0.0000 0.0000 0.0000 -11.4560 7.7935 -7.6138 -6.2941 -5.3539 43.0155 6.5813 -0.7602 1.9064 0.0000 -0.0000 -0.0000 0.0000 0.0000 0.0000 -2.5522 -1.6370 9.9720 4.5018 -2.6216 -0.2020 -0.0000 0.0000 -0.0000 2.8480 -4.3032 -4.3118 -0.0000 0.0000 -0.0000 -33.9165 -2.8149 2.5239 -45.4752 -19.6716 -13.4757 -11.8921 5.1061 48.2246 14.8942 -4.1229 -1.1899 -0.0000 0.0000 -0.0000 34.4395 5.1089 3.4843 39.3898 5.8501 -18.4903 10.1726 -0.5773 21.4978 -11.2788 1.6919 -0.6740 0.0000 0.0000 0.0000 1.3185 4.5612 -5.5958 -5.8141 -5.9326 21.6405 -0.9151 0.0730 -9.0286 0.0000 0.0000 -0.0000
10.3919 38.6139 79.0680 178.0530 -28.4096 172.0010 0.0000 0.0000 0.0000 -11.0384 7.2814 -9.5999 -8.3427 -6.3156 46.6444 4.1449 -0.5043 2.6820 0.0000 -0.0000 -0.0000 0.0000 0.0000 0.0000 -3.3172 -1.9439 10.5944 5.3559 -3.1471 -0.2979 -0.0000 0.0000 -0.0000 2.9043 -4.6190 -4.4977 -0.0000 0.0000 -0.0000 -34.0352 -2.8208 2.5339 -44.7421 -19.1673 -12.8056 -12.4610 5.1257 47.2735 14.5610 -4.5329 -1.2109 -0.0000 0.0000 -0.0000 34.9371 5.1960 3.5633 39.5364 5.6104 -18.5601 10.1179 -0.5274 21.9175 -11.4268 1.9847 -0.7096 0.0000 0.0000 0.0000 0.7531 4.4718 -4.9692 -6.7230 -6.6292 22.0666 -0.8560 0.0705 -9.7011 0.0000 0.0000 -0.0000
9.8036 38.6575 79.1211 178.3780 -29.6456 171.6010 0.0000 0.0000 0.0000 -10.1953 6.4672 -11.0707 -8.5190 -6.2272 47.5505 3.4852 -0.3791 1.2859 0.0000 -0.0000 -0.0000 0.0000 0.0000 0.0000 -3.4318 -2.3382 10.5467 5.6346 -3.6361 0.0423 -0.0000 0.0000 -0.0000 2.9568 -5.3818 -4.8138 -0.0000 0.0000 -0.0000 -34.0940 -2.8674 2.5563 -43.8763 -19.1917 -12.9317 -12.4875 5.1030 48.0477 14.7460 -4.8187 -1.2613 -0.0000 0.0000 -0.0000 35.0811 5.2113 3.5824 40.3411 5.2514 -18.7913 9.9787 -0.1628 21.8938 -11.4464 1.8908 -0.7024 0.0000 0.0000 0.0000 0.2505 4.0954 -4.1812 -7.2503 -7.1983 21.7283 -0.8252 0.0696 -10.0486 0.0000 0.0000 -0.0000
9.2246 38.7236 79.1463 178.8670 -30.5626 171.4080 0.0000 0.0000 0.0000 -8.9784 6.0492 -12.3768 -7.4700 -5.7486 45.9515 4.2579 -0.4142 -0.2619 0.0000 -0.0000 -0.0000 0.0000 0.0000 0.0000 -3.0036 -2.5487 10.2176 5.5196 -3.8257 0.2331 -0.0000 0.0000 -0.0000 2.9619 -6.3778 -5.0072 -0.0000 0.0000 -0.0000 -33.9952 -2.8967 2.5616 -43.2208 -19.5087 -13.9605 -11.9493 5.0634 49.6483 15.3578 -4.6646 -1.2963 -0.0000 0.0000 -0.0000 34.8693 5.1615 3.5433 41.4888 4.6778 -18.7672 9.9840 0.3528 21.2448 -11.1297 1.6293 -0.6593 0.0000 0.0000 0.0000 -0.0165 3.8528 -3.5128 -7.6253 -7.6437 21.1574 -1.4143 0.0726 -10.5608 0.0000 0.0000 -0.0000
